<svg
  width="480" height="480"
  xmlns="http://www.w3.org/2000/svg"
  viewBox="0 0 24 24"
  shape-rendering="crispEdges"
  transform="scale(-1, 1) translate(0, 0)"
>
  <metadata>Punked</metadata>
  <path stroke="#222034" d="M0 0h9M0 1h1M2 1h1M4 1h1M8 1h1M0 2h1M2 2h1M4 2h1M6 2h1M8 2h1M0 3h1M4 3h1M8 3h1M0 4h1M2 4h1M4 4h1M6 4h3M0 5h1M2 5h1M4 5h1M6 5h1M0 6h7" />
  <path stroke="#ffffff" d="M1 1h1M3 1h1M5 1h3" />
  <path stroke="#f2f2f5" d="M1 2h1M3 2h1M5 2h1M7 2h1M1 3h3M5 3h3M1 4h1M3 4h1M5 4h1M1 5h1M3 5h1M5 5h1" />



  <g className="face">
    <g className="outline">
      <path
        stroke="#000000"
        d="M10 5h7M9 6h1M17 6h2M8 7h1M18 7h1M8 8h1M18 8h2M7 9h1M19 9h1M7 10h2M19 10h1M6 11h1M9 11h1M15 11h1M19 11h1M5 12h1M16 12h1M19 12h1M5 13h1M16 13h1M19 13h1M6 14h1M16 14h1M19 14h1M6 15h1M15 15h1M19 15h1M7 16h1M14 16h1M19 16h1M6 17h1M19 17h1M7 18h1M19 18h1M7 19h1M19 19h1M7 20h5M19 20h1M11 21h1M19 21h1M11 22h1M19 22h1M11 23h1M19 23h1"
      />
    </g>
    <g className="skin-color">
      <path
        stroke="#713f1d"
        d="M10 6h7M9 7h2M12 7h6M9 8h1M11 8h7M8 9h11M11 10h8M7 11h2M11 11h4M16 11h3M6 12h2M10 12h6M17 12h2M6 13h2M9 13h7M17 13h2M8 14h8M17 14h2M7 15h7M17 15h2M9 16h5M15 16h4M7 17h12M8 18h11M8 19h4M14 19h5M12 20h7M12 21h7M12 22h7M12 23h7"
      />
    </g>
    <g className="highlight">
      <path stroke="#8b532c" d="M11 7h1M10 8h1" />
    </g>
    <g className="shadow-light">
      <path stroke="#552f16" d="M9 10h2M8 12h1M7 14h1M12 19h2" />
    </g>
    <g className="shadow-dark">
      <path
        stroke="#562600"
        d="M10 11h1M9 12h1M8 13h1M14 15h1M16 15h1M8 16h1"
      />
    </g>
  </g>
  <g className="ear-ring">
    <path stroke="#ffbaff" d="M14 15h1" />
  </g>
  <g className="beard">
    <g className="hair">
      <path
        stroke="#e22626"
        d="M6 15h4M11 15h2M8 16h2M11 16h2M6 17h7M5 18h8M5 19h8M5 20h8M5 21h7M7 22h5"
      />
    </g>
    <g className="lips">
      <path stroke="#853217" d="M6 16h2" />
    </g>
  </g>
  <g className="dreds 2">
    <path
      stroke="#e22626"
      d="M10 5h8M9 6h2M12 6h8M8 7h2M11 7h10M8 8h12M6 9h15M6 10h15M6 11h2M9 11h13M5 12h1M7 12h1M10 12h2M13 12h9M4 13h1M6 13h3M10 13h2M13 13h8M4 14h1M6 14h1M8 14h1M10 14h2M13 14h1M16 14h7M10 15h1M13 15h1M15 15h7M10 16h1M16 16h6M16 17h6M16 18h1M19 18h1M21 18h1M21 19h1"
    />
    <path stroke="#5bfa29" d="M11 6h1M10 7h1" />
  </g>
  <g className="addition">
    <g className="smoke">
      <path stroke="#c6c6c6" d="M2 11h1M2 12h1M2 13h1M2 14h1" />
    </g>
    <g className="outline">
      <path stroke="#000000" d="M2 15h5M7 16h1M2 17h5" />
    </g>
    <g className="lit">
      <path stroke="#e25b26" d="M2 16h1" />
    </g>
    <g className="blunt-type">
      <path stroke="#552f16" d="M3 16h4" />
    </g>
  </g>
</svg>